<svg width="20" height="22" viewBox="0 0 20 22" fill="none" xmlns="http://www.w3.org/2000/svg">
<path d="M10.02 1C6.34002 1 3.36002 3.98 3.36002 7.66V9.76C3.36002 10.44 3.08002 11.46 2.73002 12.04L1.46002 14.16C0.68002 15.47 1.22002 16.93 2.66002 17.41C7.44002 19 12.61 19 17.39 17.41C18.74 16.96 19.32 15.38 18.59 14.16L17.32 12.04C16.97 11.46 16.69 10.43 16.69 9.76V7.66C16.68 4 13.68 1 10.02 1Z" stroke="#292D32" stroke-width="1.5" stroke-miterlimit="10" stroke-linecap="round"/>
<path d="M13.33 17.8201C13.33 19.6501 11.83 21.1501 10 21.1501C9.09004 21.1501 8.25004 20.7701 7.65004 20.1701C7.05004 19.5701 6.67004 18.7301 6.67004 17.8201" stroke="#292D32" stroke-width="1.5" stroke-miterlimit="10"/>
</svg>
