<svg width="24" height="24" viewBox="0 0 24 24" fill="none" xmlns="http://www.w3.org/2000/svg">
<path d="M12.02 3C8.34002 3 5.36002 5.98 5.36002 9.66V11.76C5.36002 12.44 5.08002 13.46 4.73002 14.04L3.46002 16.16C2.68002 17.47 3.22002 18.93 4.66002 19.41C9.44002 21 14.61 21 19.39 19.41C20.74 18.96 21.32 17.38 20.59 16.16L19.32 14.04C18.97 13.46 18.69 12.43 18.69 11.76V9.66C18.68 6 15.68 3 12.02 3Z" stroke="#292D32" stroke-width="1.5" stroke-miterlimit="10" stroke-linecap="round"/>
<path d="M15.33 19.8201C15.33 21.6501 13.83 23.1501 12 23.1501C11.09 23.1501 10.25 22.7701 9.65004 22.1701C9.05004 21.5701 8.67004 20.7301 8.67004 19.8201" stroke="#292D32" stroke-width="1.5" stroke-miterlimit="10"/>
</svg>
