<svg width="22" height="22" viewBox="0 0 22 22" fill="none" xmlns="http://www.w3.org/2000/svg">
<path d="M16 17.43H12L7.54999 20.3899C6.88999 20.8299 6 20.36 6 19.56V17.43C3 17.43 1 15.43 1 12.43V6.42993C1 3.42993 3 1.42993 6 1.42993H16C19 1.42993 21 3.42993 21 6.42993V12.43C21 15.43 19 17.43 16 17.43Z" stroke="#292D32" stroke-width="1.5" stroke-miterlimit="10" stroke-linecap="round" stroke-linejoin="round"/>
<path d="M11.0001 10.3601V10.1501C11.0001 9.47014 11.4201 9.11013 11.8401 8.82013C12.2501 8.54013 12.66 8.18014 12.66 7.52014C12.66 6.60014 11.9201 5.86011 11.0001 5.86011C10.0801 5.86011 9.34009 6.60014 9.34009 7.52014" stroke="#292D32" stroke-width="1.5" stroke-linecap="round" stroke-linejoin="round"/>
<path d="M10.9955 12.75H11.0045" stroke="#292D32" stroke-width="1.5" stroke-linecap="round" stroke-linejoin="round"/>
</svg>
